<svg width="109" height="20" viewBox="0 0 109 20" fill="none" xmlns="http://www.w3.org/2000/svg">
    <path d="M0 0H14.1714V3.28571H3.88571V8.82857H12.8V12.1143H3.88571V20H0V0Z" fill="white"/>
    <path d="M16.6049 0H20.4906V20H16.6049V0Z" fill="white"/>
    <path d="M24.0725 16.7143V3.28571L27.3583 0H37.644L40.9297 3.28571V16.7143L37.644 20H27.3583L24.0725 16.7143ZM35.5868 16.6857L37.044 15.2286V4.77143L35.5868 3.31429H29.4154L27.9583 4.77143V15.2286L29.4154 16.6857H35.5868Z" fill="white"/>
    <path d="M44.3638 0H47.8496L56.7638 13.5714H56.821V0H60.5638V20H57.0781L48.1638 6.45714H48.1067V20H44.3638V0Z" fill="white"/>
    <path d="M64.2505 18.6831V16.7231L65.4971 15.4062H67.6134L68.8311 16.7537V18.6524L67.6134 19.9999H65.4971L64.2505 18.6831Z" fill="#A1DB00"/>
    <path d="M72.5177 0H85.3177L88.7463 3.42857V16.5714L85.3177 20H72.5177V0ZM83.4034 16.6857L84.8606 15.2286V4.77143L83.4034 3.31429H76.4034V16.6857H83.4034Z" fill="#A1DB00"/>
    <path d="M92.1885 0H104.731L107.588 2.85714V8.45714L106.446 9.62857L108.474 11.6857V16.9143L105.388 20H92.1885V0ZM102.731 8.37143L103.76 7.34286V4.25714L102.76 3.25714H95.9885V8.37143H102.731ZM103.417 16.7429L104.646 15.5143V12.7143L103.417 11.4857H95.9885V16.7429H103.417Z" fill="#A1DB00"/>
</svg>
